<svg width="292" height="292" viewBox="0 0 292 292" fill="none" xmlns="http://www.w3.org/2000/svg"><path d="M20.1221 166.056c2.2-.155 5.1741-.155 7.1569.835 18.8365 11.887 38.6699 17.83 57.5064 26.752 41.6436 10.896 83.2886 21.798 124.3636 36.597M240.449 135.348c5.497-4.169 11.095-8.203 16.787-12.099M211.981 159.356c7.442-6.817 15.017-13.501 22.953-19.751M194.267 175.756c3.792-3.489 7.563-7.007 11.339-10.518M181.913 186.552c2.139-1.563 4.121-3.328 6.088-5.097M158.677 194.561c5.185-1.603 10.649-2.17 15.784-3.968" stroke="#000" stroke-width="1.5" stroke-miterlimit="10"/><path d="M126.572 202.13c7.107-1.508 14.181-3.183 21.243-4.903M94.5859 208.786c7.0351-1.581 14.1081-2.989 21.1761-4.424M61.002 215.804c7.9533-1.748 15.9235-3.412 23.9048-5.042M178.311 70.7916c3.664-2.5098 7.346-5.0031 11.05-7.4518M146.861 92.3399c8.455-5.6487 16.798-11.4588 25.17-17.2354M115.407 111.267c8.799-4.524 17.288-9.655 25.581-15.0478M84.8721 124.123c8.4045-2.861 16.6639-6.156 24.6839-9.968M53.125 133.672c7.6416-2.192 15.2998-4.329 22.8967-6.683M31.415 140.334c4.7787-1.619 9.6021-3.11 14.4421-4.546M208.323 87.7042c2.813-2.0146 5.637-4.018 8.499-5.9547M175.59 109.642c9.067-6.662 18.536-11.6702 27.302-18.0424M168.31 117.572c.785-1.241 1.671-2.409 2.634-3.517M183.99 152.255c.941-1.213 1.932-1.213 2.924-2.204 9.914-14.859 21.816-24.771 33.713-35.667 7.931-6.935 17.845-10.897 27.001-16.7292M148.037 56.2274c3.503-2.048 6.985-4.1238 10.454-6.2274M116.343 73.8304c8.671-4.5968 17.288-9.3162 25.804-14.1912M87.4365 88.1995c7.7696-3.6953 15.4945-7.4963 23.1475-11.4197M55.3755 102.942c8.6552-3.9125 17.3103-7.8249 25.9154-11.8429M26.9419 113.003c7.8587.184 15.205-3.433 21.9276-7.112M40.5791 150.624c10.8997 5.994 20.8248 13.445 31.4238 19.94 10.9164 6.689 22.039 10.68 34.3371 14.013 28.015 7.597 56.242 14.342 84.391 21.415 15.745 3.957 31.468 8.019 47.102 12.394M84.8936 160.819c6.7504.039 13.4339.039 20.1174 1.152h5.57c.556 0 1.113.557 1.732 1.102" stroke="#000" stroke-width="1.5" stroke-miterlimit="10"/><path d="M62.833 161.671c4.5336-.261 9.0729-.422 13.6177-.483M29.3047 165.149c8.4435-.723 16.7589-2.638 25.2415-2.894M134.909 53.1333c15.489 7.4685 31.29 14.3804 46.512 22.3943 14.058 7.4016 27.135 16.5285 41.31 23.7188 8.12 4.1186 16.982 6.3216 25.091 10.4906M103.231 68.6211c17.934 11.6034 36.314 22.5501 54.682 33.4469 18.369 10.896 36.538 20.702 56.621 27.002 5.615 1.758 11.312 3.289 16.843 5.298 5.258 1.909 10.721 4.191 16.441 3.712M75.5557 83.3408C92.0084 95.523 108.233 108.045 123.516 121.674M46.7026 99.6304c9.3459 7.1286 19.2431 13.5006 28.5833 20.6416 8.8279 6.75 16.4304 14.641 24.0166 22.728 3.6705 3.912 7.0845 8.526 11.8965 11.119M140.315 186.569c-11.022-3.121-17.272-7.368-23.721-17.168-4.941-7.508-5.732-16.451-4.428-25.183 1.532-10.284 7.636-18.565 15.372-25.182 6.856-5.86 13.189-6.611 21.81-7.051 14.454-.735 28.628 11.509 32.783 25.077 5.23 17.063 1.059 32.678-14.313 42.918-5.86 3.907-11.652 5.955-18.631 6.99-3.264.484-7.719-.639-8.867-.395l-.005-.006ZM154.689 186.664c-.144-.139 2.056-.896 2.518-.841 10.248.602 21.493-5.681 31.636-6.994 11.072-1.431 21.487-.463 32.593.745 8.961.974 17.489 3.506 26.316 5.137 6.11 1.129 18.893 4.44 25.075 4.468M242.628 197.027c6.132-2.326 12.225-4.792 18.391-7.023M212.333 208.524c6.984-2.616 13.952-5.275 20.919-7.93M152.706 228.437c13.301-3.657 26.422-7.937 39.428-12.533 3.703-1.308 7.396-2.643 11.077-3.996M119.333 239.216c8.109-2.86 16.302-5.498 24.511-8.052M120.051 183.442c2.974.545 5.937 1.158 8.883 1.825M98.3223 180.638c3.7707.272 7.5307.656 11.2787 1.151M62.979 181.644c7.5969-1.03 15.2607-1.508 22.9245-1.48M32.1831 186.814c7.5747-1.658 15.2163-3.032 22.8912-4.129M19 189.931c1.6597-.028 3.2861-.495 4.8623-.985M261.547 145.738c-.697.44-1.403.885-2.061 1.363.724-.389 1.426-.818 2.127-1.246M240.021 161.47c6.059-4.04 11.991-8.275 17.861-12.588M215.271 176.252c5.346-2.788 10.582-5.794 15.711-8.966" stroke="#000" stroke-width="1.5" stroke-miterlimit="10"/><path d="M183.069 187.477c8.01-1.42 15.785-3.879 23.265-7.051M129.028 189.163c14.515.072 29.068.968 43.555-.317M93.0815 192.652c8.3155-1.407 16.6975-2.443 25.1085-3.071M59.4541 199.314c6.6613-1.564 13.3503-3.027 20.0951-4.201M27.6074 206.826c7.5581-1.608 15.0659-3.46 22.5737-5.286M241.379 181.066c7.184-2.828 14.698-6.161 21.209-10.358M216.075 190.298c5.743-2.276 11.602-4.235 17.422-6.305M182.392 201.384c8.471-2.226 16.848-4.252 24.99-7.535M152.404 209.181c7.052-1.786 14.092-3.623 21.131-5.471M121.859 217.557c6.946-1.948 13.897-3.863 20.854-5.754M86.8491 227.68c8.5494-2.554 17.1149-5.048 25.6989-7.491" stroke="#000" stroke-width="1.5" stroke-miterlimit="10"/><path d="M27.2095 187.688c7.998 2.983 15.9292 7.936 23.8602 10.908 17.8451 6.934 36.6872 9.905 54.5323 16.84 25.782 8.916 50.567 16.84 76.304 25.633M181.751 161.955c18.553-.851 36.503-.105 55.061 1.074 11.245.713 22.552 2.288 33.78 2.282M21.9873 112.72c1.3256 2.654 4.2997 3.645 6.2825 5.626.9914.991 1.9828 0 2.9742.991 19.8279 14.859 35.6957 30.714 54.5322 47.554 1.9827 1.981 4.4835 3.607 6.9397 4.953 30.0531 16.495 58.4981 16.84 88.2451 16.84 7.931.991 14.871.991 22.807 1.982 21.817 2.971 41.645 9.906 62.224 16.901" stroke="#000" stroke-width="1.5" stroke-miterlimit="10"/><path d="M181.139 153.356c-2.032 1.163-4.372 4.202-5.92 5.927-2.729 3.039-4.835 6.562-7.764 9.456-1.95 1.925-3.649 3.929-5.48 5.949-2.229 2.46-5.592 4.107-8.678 5.236-4.578 1.675-10.477 1.692-14.988-.4-2.055-.952-2.874-1.614-5.051-1.258-2.496.406-5.453-.095-7.314-2.276" stroke="#000" stroke-width="1.5" stroke-miterlimit="10"/><path d="M123.23 165.471c.624 2.576 3.409 5.915 6.194 5.915 2.784-.556 5.57-2.782 8.911-2.225 4.456 1.112 7.798 5.008 12.253 3.339M115.878 157.914c-1.136-2.042 1.81-1.564 2.702-.879 1.203.924 2.133 2.299 2.912 3.584M181.137 163.569c-2.479-1.197-7.001 5.287-8.182 7.062-1.052 1.58-2.283 4.229-2.044 6.139M168.59 125.682c.34.591 2.055 1.597 2.775 2.334 1.47 1.504 2.378 3.452 3.315 5.23 1.385 2.642 2.184 5.391 2.559 8.257.352 2.69-.216 5.504-1.272 8.052M170.764 147.964c-1.966.779-2.551 3.912-3.141 5.71-.685 2.092-1.125 4.268-2.467 6.06-.875 1.164-2.044 2.043-3.036 3.089-.991 1.046-1.743 2.521-2.846 3.517-1.259 1.141-4.333 2.521-5.803 1.269M115.929 143.979c-.819 4.77 6.305 6.367 8.589 9.105 1.247 1.497 1.041 3.423 2.389 4.919 1.637 1.82 4.316 2.354 6.633 1.687M138.574 162.21c1.421.919 3.877 1.72 5.453.841" stroke="#000" stroke-width="1.5" stroke-miterlimit="10"/></svg>